<?xml version="1.0" encoding="UTF-8"?>
<svg xmlns="http://www.w3.org/2000/svg" xmlns:xlink="http://www.w3.org/1999/xlink" width="854" height="480" viewBox="0 0 854 480">
<defs>
<g>
<g id="glyph-0-0">
<path d="M 2.390625 -2.703125 C 2.335938 -2.734375 2.273438 -2.753906 2.203125 -2.765625 C 2.128906 -2.785156 2.050781 -2.796875 1.96875 -2.796875 C 1.675781 -2.796875 1.453125 -2.695312 1.296875 -2.5 C 1.140625 -2.3125 1.0625 -2.035156 1.0625 -1.671875 L 1.0625 0 L 0.53125 0 L 0.53125 -3.1875 L 1.0625 -3.1875 L 1.0625 -2.6875 C 1.164062 -2.882812 1.304688 -3.03125 1.484375 -3.125 C 1.660156 -3.21875 1.875 -3.265625 2.125 -3.265625 C 2.164062 -3.265625 2.207031 -3.257812 2.25 -3.25 C 2.289062 -3.25 2.335938 -3.242188 2.390625 -3.234375 Z "/>
</g>
<g id="glyph-0-1">
<path d="M 3.28125 -1.71875 L 3.28125 -1.46875 L 0.875 -1.46875 C 0.894531 -1.101562 1 -0.828125 1.1875 -0.640625 C 1.382812 -0.453125 1.65625 -0.359375 2 -0.359375 C 2.207031 -0.359375 2.40625 -0.382812 2.59375 -0.4375 C 2.78125 -0.488281 2.96875 -0.5625 3.15625 -0.65625 L 3.15625 -0.15625 C 2.96875 -0.0820312 2.773438 -0.0234375 2.578125 0.015625 C 2.378906 0.0546875 2.175781 0.078125 1.96875 0.078125 C 1.46875 0.078125 1.066406 -0.0664062 0.765625 -0.359375 C 0.472656 -0.660156 0.328125 -1.0625 0.328125 -1.5625 C 0.328125 -2.082031 0.46875 -2.492188 0.75 -2.796875 C 1.03125 -3.109375 1.410156 -3.265625 1.890625 -3.265625 C 2.316406 -3.265625 2.65625 -3.125 2.90625 -2.84375 C 3.15625 -2.570312 3.28125 -2.195312 3.28125 -1.71875 Z M 2.75 -1.875 C 2.75 -2.164062 2.671875 -2.394531 2.515625 -2.5625 C 2.359375 -2.726562 2.148438 -2.8125 1.890625 -2.8125 C 1.597656 -2.8125 1.363281 -2.726562 1.1875 -2.5625 C 1.007812 -2.40625 0.910156 -2.175781 0.890625 -1.875 Z "/>
</g>
<g id="glyph-0-2">
<path d="M 2.15625 -4.421875 L 2.15625 -4 L 1.65625 -4 C 1.46875 -4 1.335938 -3.957031 1.265625 -3.875 C 1.191406 -3.800781 1.15625 -3.664062 1.15625 -3.46875 L 1.15625 -3.1875 L 2.015625 -3.1875 L 2.015625 -2.78125 L 1.15625 -2.78125 L 1.15625 0 L 0.640625 0 L 0.640625 -2.78125 L 0.140625 -2.78125 L 0.140625 -3.1875 L 0.640625 -3.1875 L 0.640625 -3.40625 C 0.640625 -3.757812 0.71875 -4.015625 0.875 -4.171875 C 1.039062 -4.335938 1.304688 -4.421875 1.671875 -4.421875 Z "/>
</g>
<g id="glyph-0-3">
<path d="M 3.203125 -1.921875 L 3.203125 0 L 2.671875 0 L 2.671875 -1.90625 C 2.671875 -2.207031 2.613281 -2.429688 2.5 -2.578125 C 2.382812 -2.734375 2.207031 -2.8125 1.96875 -2.8125 C 1.6875 -2.8125 1.460938 -2.71875 1.296875 -2.53125 C 1.140625 -2.351562 1.0625 -2.109375 1.0625 -1.796875 L 1.0625 0 L 0.53125 0 L 0.53125 -3.1875 L 1.0625 -3.1875 L 1.0625 -2.6875 C 1.1875 -2.882812 1.332031 -3.03125 1.5 -3.125 C 1.664062 -3.21875 1.863281 -3.265625 2.09375 -3.265625 C 2.457031 -3.265625 2.734375 -3.148438 2.921875 -2.921875 C 3.109375 -2.691406 3.203125 -2.359375 3.203125 -1.921875 Z "/>
</g>
<g id="glyph-0-4">
<path d="M 2.84375 -3.0625 L 2.84375 -2.578125 C 2.695312 -2.660156 2.546875 -2.71875 2.390625 -2.75 C 2.242188 -2.789062 2.097656 -2.8125 1.953125 -2.8125 C 1.609375 -2.8125 1.34375 -2.703125 1.15625 -2.484375 C 0.96875 -2.273438 0.875 -1.976562 0.875 -1.59375 C 0.875 -1.195312 0.96875 -0.890625 1.15625 -0.671875 C 1.34375 -0.460938 1.609375 -0.359375 1.953125 -0.359375 C 2.097656 -0.359375 2.242188 -0.378906 2.390625 -0.421875 C 2.546875 -0.460938 2.695312 -0.523438 2.84375 -0.609375 L 2.84375 -0.125 C 2.695312 -0.0507812 2.546875 0 2.390625 0.03125 C 2.234375 0.0625 2.066406 0.078125 1.890625 0.078125 C 1.410156 0.078125 1.03125 -0.0703125 0.75 -0.375 C 0.46875 -0.675781 0.328125 -1.082031 0.328125 -1.59375 C 0.328125 -2.113281 0.46875 -2.519531 0.75 -2.8125 C 1.03125 -3.113281 1.421875 -3.265625 1.921875 -3.265625 C 2.085938 -3.265625 2.242188 -3.25 2.390625 -3.21875 C 2.546875 -3.1875 2.695312 -3.132812 2.84375 -3.0625 Z "/>
</g>
<g id="glyph-0-5">
<path d="M 0.546875 -3.1875 L 1.078125 -3.1875 L 1.078125 0 L 0.546875 0 Z M 0.546875 -4.421875 L 1.078125 -4.421875 L 1.078125 -3.765625 L 0.546875 -3.765625 Z "/>
</g>
<g id="glyph-0-6">
<path d="M 2 -1.609375 C 1.570312 -1.609375 1.273438 -1.554688 1.109375 -1.453125 C 0.953125 -1.359375 0.875 -1.195312 0.875 -0.96875 C 0.875 -0.78125 0.929688 -0.628906 1.046875 -0.515625 C 1.171875 -0.410156 1.34375 -0.359375 1.5625 -0.359375 C 1.84375 -0.359375 2.070312 -0.457031 2.25 -0.65625 C 2.425781 -0.863281 2.515625 -1.140625 2.515625 -1.484375 L 2.515625 -1.609375 Z M 3.046875 -1.8125 L 3.046875 0 L 2.515625 0 L 2.515625 -0.484375 C 2.398438 -0.285156 2.25 -0.140625 2.0625 -0.046875 C 1.882812 0.0351562 1.671875 0.078125 1.421875 0.078125 C 1.085938 0.078125 0.820312 -0.0078125 0.625 -0.1875 C 0.4375 -0.375 0.34375 -0.617188 0.34375 -0.921875 C 0.34375 -1.285156 0.460938 -1.554688 0.703125 -1.734375 C 0.941406 -1.921875 1.300781 -2.015625 1.78125 -2.015625 L 2.515625 -2.015625 L 2.515625 -2.0625 C 2.515625 -2.300781 2.4375 -2.484375 2.28125 -2.609375 C 2.125 -2.742188 1.898438 -2.8125 1.609375 -2.8125 C 1.429688 -2.8125 1.253906 -2.789062 1.078125 -2.75 C 0.910156 -2.707031 0.742188 -2.644531 0.578125 -2.5625 L 0.578125 -3.046875 C 0.773438 -3.117188 0.960938 -3.171875 1.140625 -3.203125 C 1.316406 -3.242188 1.492188 -3.265625 1.671875 -3.265625 C 2.128906 -3.265625 2.472656 -3.144531 2.703125 -2.90625 C 2.929688 -2.664062 3.046875 -2.300781 3.046875 -1.8125 Z "/>
</g>
</g>
</defs>
<g fill="rgb(25.098039%, 85.098039%, 75.294118%)" fill-opacity="1">
<use xlink:href="#glyph-0-0" x="30" y="25.414062"/>
<use xlink:href="#glyph-0-1" x="32" y="25.414062"/>
<use xlink:href="#glyph-0-2" x="36" y="25.414062"/>
<use xlink:href="#glyph-0-1" x="38" y="25.414062"/>
<use xlink:href="#glyph-0-0" x="42" y="25.414062"/>
<use xlink:href="#glyph-0-1" x="44" y="25.414062"/>
<use xlink:href="#glyph-0-3" x="48" y="25.414062"/>
<use xlink:href="#glyph-0-4" x="52" y="25.414062"/>
<use xlink:href="#glyph-0-5" x="55" y="25.414062"/>
<use xlink:href="#glyph-0-6" x="57" y="25.414062"/>
</g>
</svg>
